<svg width="30" height="29" viewBox="0 0 30 29" fill="none" xmlns="http://www.w3.org/2000/svg">
<g id="fluent:chat-help-20-regular">
<path id="Vector" d="M13.5219 10.5163L13.5226 10.5155C13.7677 10.2383 14.1445 10.0296 14.7006 10.0296C15.2567 10.0296 15.6335 10.2383 15.8786 10.5155L15.8788 10.5158C16.1336 10.8054 16.2714 11.2043 16.2714 11.6004C16.2714 12.0808 16.1632 12.4006 16.0143 12.656L16.0142 12.656C15.8615 12.9177 15.66 13.1289 15.3955 13.4059L15.384 13.418L15.3839 13.4181L15.3521 13.4514L13.5219 10.5163ZM13.5219 10.5163C13.2693 10.8068 13.1298 11.2038 13.1298 11.6004C13.1298 11.7607 13.0661 11.9143 12.9528 12.0276C12.8395 12.1409 12.6858 12.2046 12.5256 12.2046C12.3654 12.2046 12.2117 12.1409 12.0984 12.0276C11.9851 11.9143 11.9214 11.7607 11.9214 11.6004C11.9214 10.9407 12.1462 10.2495 12.6162 9.71709L12.6163 9.71699M13.5219 10.5163L12.6163 9.71699M12.6163 9.71699C13.0959 9.17236 13.8065 8.82126 14.7006 8.82126C15.5947 8.82126 16.3053 9.17236 16.7849 9.71698C17.2551 10.2509 17.4798 10.9394 17.4798 11.6004C17.4798 12.29 17.317 12.8199 17.0584 13.265C16.8336 13.6497 16.5401 13.9571 16.296 14.2127L16.286 14.2231L16.2851 14.2241L16.2251 14.2855L16.2251 14.2855M12.6163 9.71699L16.2251 14.2855M16.2251 14.2855L16.2241 14.2865M16.2251 14.2855L16.2241 14.2865M16.2241 14.2865C15.9545 14.5692 15.7362 14.8105 15.5753 15.1171L15.5752 15.1172M16.2241 14.2865L15.5752 15.1172M15.5752 15.1172C15.4203 15.4129 15.3048 15.7993 15.3048 16.3753M15.5752 15.1172L15.3048 16.3753M14.7006 4.22959H14.7007C16.2702 4.23045 17.8187 4.59102 19.2272 5.28361C20.6357 5.9762 21.8667 6.98239 22.8257 8.2249C23.7848 9.46742 24.4462 10.9132 24.7594 12.4512C25.0726 13.9892 25.0291 15.5785 24.6322 17.0971C24.2354 18.6157 23.4958 20.0231 22.4703 21.2113C21.4447 22.3995 20.1605 23.3368 18.7163 23.9514C17.272 24.5659 15.7061 24.8412 14.1388 24.7562C12.5716 24.6712 11.0446 24.2281 9.67529 23.461L9.67492 23.4608C9.54071 23.385 9.38261 23.3633 9.23297 23.4003L14.7006 4.22959ZM14.7006 4.22959C12.9082 4.22905 11.1468 4.69759 9.59156 5.58867C8.03631 6.47974 6.74132 7.76232 5.83532 9.30893C4.92931 10.8555 4.44383 12.6123 4.42712 14.4047C4.41041 16.197 4.86305 17.9626 5.74007 19.5258L5.74024 19.5261C5.81605 19.6603 5.83768 19.8184 5.80072 19.9681C5.8007 19.9682 5.80067 19.9683 5.80065 19.9683L4.70453 24.3499L4.65564 24.5454L4.85107 24.4965L9.23268 23.4004L14.7006 4.22959ZM15.3048 16.3753C15.3048 16.5355 15.2411 16.6892 15.1278 16.8025M15.3048 16.3753L15.1278 16.8025M15.1278 16.8025C15.0145 16.9158 14.8608 16.9794 14.7006 16.9794M15.1278 16.8025L14.7006 16.9794M14.7006 16.9794C14.5404 16.9794 14.3867 16.9158 14.2734 16.8025M14.7006 16.9794L14.2734 16.8025M14.2734 16.8025C14.1601 16.6892 14.0964 16.5355 14.0964 16.3753M14.2734 16.8025L14.0964 16.3753M14.0964 16.3753C14.0964 15.6217 14.252 15.0394 14.5046 14.5565M14.0964 16.3753L14.5046 14.5565M14.5046 14.5565C14.7525 14.0844 15.0795 13.7371 15.352 13.4515L14.5046 14.5565ZM14.7052 20.4871L14.6045 20.4833C14.4027 20.4615 14.2132 20.3714 14.0683 20.2265C13.9006 20.0589 13.8064 19.8314 13.8064 19.5943C13.8064 19.3571 13.9006 19.1297 14.0683 18.962C14.236 18.7943 14.4635 18.7001 14.7006 18.7001V18.7002L14.7052 18.7C14.8253 18.6955 14.9452 18.7152 15.0576 18.7581C15.17 18.8009 15.2725 18.866 15.3592 18.9494C15.4458 19.0329 15.5147 19.1329 15.5618 19.2436C15.6089 19.3542 15.6331 19.4733 15.6331 19.5935C15.6331 19.7138 15.6089 19.8329 15.5618 19.9435C15.5147 20.0542 15.4458 20.1542 15.3592 20.2377C15.2725 20.3211 15.17 20.3862 15.0576 20.429C14.9452 20.4719 14.8253 20.4916 14.7052 20.4871ZM3.22143 14.5006L3.22143 14.5005C3.22206 11.992 4.04433 9.55281 5.56249 7.55593C7.08065 5.55905 9.21112 4.11442 11.628 3.443C14.045 2.77158 16.6153 2.91033 18.9459 3.83802C21.2765 4.76571 23.2391 6.43128 24.5335 8.57998C25.8278 10.7287 26.3828 13.2422 26.1134 15.7362C25.844 18.2301 24.7651 20.5672 23.0417 22.3899C21.3183 24.2126 19.0453 25.4206 16.5704 25.8292C14.0954 26.2378 11.5547 25.8244 9.33696 24.6523L9.29606 24.6307L9.25119 24.642L3.97319 25.9615L3.97304 25.9615C3.87182 25.9869 3.76572 25.9857 3.66511 25.958C3.56449 25.9302 3.47278 25.8769 3.39891 25.8031C3.32504 25.7294 3.27154 25.6377 3.24362 25.5372C3.2157 25.4366 3.21431 25.3305 3.23959 25.2292L4.55908 19.9498L4.5703 19.9049L4.54865 19.864C3.6744 18.2116 3.21869 16.37 3.22143 14.5006Z" fill="black" stroke="#FDFDFD" stroke-width="0.241667"/>
</g>
</svg>
