<svg width="35" height="31" viewBox="0 0 35 31" fill="none" xmlns="http://www.w3.org/2000/svg">
<g id="cart">
<g id="shopping cart">
<path id="Vector" d="M5.30748 7.21814V7.20898L5.30495 7.20018L3.81632 2.03555C3.79868 1.9561 3.75416 1.88514 3.69024 1.83468C3.62591 1.78389 3.54595 1.75704 3.46402 1.75869H0.911765C0.687145 1.75869 0.471726 1.66946 0.312896 1.51063C0.154066 1.3518 0.0648366 1.13638 0.0648366 0.911765C0.0648366 0.687145 0.154066 0.471726 0.312896 0.312896C0.471726 0.154066 0.687145 0.0648366 0.911765 0.0648366H3.46459C3.91413 0.0664534 4.35102 0.213818 4.70969 0.484817C5.0684 0.755838 5.32952 1.13589 5.45387 1.56793L6.74549 6.09622L6.75891 6.14327H6.80784H33.3858C33.5173 6.14327 33.6469 6.17388 33.7645 6.23268C33.8821 6.29148 33.9844 6.37685 34.0633 6.48204L34.0635 6.48222C34.1416 6.58561 34.1949 6.70555 34.2194 6.83281C34.2438 6.95988 34.2388 7.09085 34.2048 7.21568C34.2047 7.21586 34.2047 7.21604 34.2046 7.21623L30.1931 21.2564C29.9939 21.9414 29.5787 22.5436 29.0093 22.9734C28.4399 23.4031 27.7468 23.6373 27.0335 23.641H12.4763C11.763 23.6373 11.0699 23.4031 10.5005 22.9734C9.93121 22.5437 9.51598 21.9415 9.31674 21.2566C9.31671 21.2566 9.31669 21.2565 9.31667 21.2564L5.30748 7.25463V7.21814ZM32.2476 7.91984L32.2713 7.83712H32.1853H7.32451H7.23846L7.26219 7.91984L10.9547 20.7905C10.9547 20.7906 10.9548 20.7907 10.9548 20.7908C11.0479 21.1227 11.2468 21.4153 11.5213 21.624C11.7958 21.8327 12.1309 21.9462 12.4758 21.9472H12.476H27.0338H27.034C27.3789 21.9462 27.714 21.8327 27.9885 21.624C28.263 21.4152 28.4619 21.1226 28.5551 20.7906C28.5551 20.7906 28.5551 20.7906 28.5551 20.7905L32.2476 7.91984ZM13.9156 28.8725C13.9156 29.2805 13.7946 29.6793 13.5679 30.0185C13.3413 30.3577 13.0192 30.622 12.6423 30.7782C12.2654 30.9343 11.8507 30.9751 11.4505 30.8955C11.0504 30.8159 10.6829 30.6195 10.3945 30.331C10.106 30.0426 9.90954 29.6751 9.82996 29.2749C9.75037 28.8748 9.79122 28.4601 9.94733 28.0832C10.1034 27.7063 10.3678 27.3842 10.707 27.1575C11.0462 26.9309 11.445 26.8099 11.8529 26.8099C12.4 26.8099 12.9246 27.0272 13.3114 27.4141C13.6982 27.8009 13.9156 28.3255 13.9156 28.8725ZM26.5109 27.1575C26.8501 26.9309 27.2489 26.8099 27.6569 26.8099C28.2039 26.8099 28.7285 27.0272 29.1153 27.4141C29.5022 27.8009 29.7195 28.3255 29.7195 28.8725C29.7195 29.2805 29.5985 29.6793 29.3719 30.0185C29.1452 30.3577 28.8231 30.622 28.4462 30.7782C28.0693 30.9343 27.6546 30.9751 27.2545 30.8955C26.8544 30.8159 26.4868 30.6195 26.1984 30.331C25.9099 30.0426 25.7135 29.6751 25.6339 29.2749C25.5543 28.8748 25.5951 28.4601 25.7513 28.0832C25.9074 27.7063 26.1717 27.3842 26.5109 27.1575Z" fill="#232221" stroke="#FDFDFD" stroke-width="0.129673"/>
</g>
</g>
</svg>
