<svg width="35" height="33" viewBox="0 0 35 33" fill="none" xmlns="http://www.w3.org/2000/svg">
<g id="cart">
<g id="shopping cart">
<path id="Vector" d="M14.1545 29.9899C14.1545 30.4159 14.0281 30.8323 13.7915 31.1865C13.5548 31.5408 13.2184 31.8168 12.8248 31.9799C12.4312 32.1429 11.9981 32.1855 11.5803 32.1024C11.1625 32.0193 10.7787 31.8142 10.4775 31.5129C10.1762 31.2117 9.97109 30.8279 9.88798 30.4101C9.80487 29.9923 9.84752 29.5592 10.0106 29.1656C10.1736 28.772 10.4497 28.4356 10.8039 28.1989C11.1581 27.9623 11.5745 27.8359 12.0005 27.8359C12.5718 27.8359 13.1197 28.0629 13.5236 28.4668C13.9275 28.8708 14.1545 29.4186 14.1545 29.9899ZM28.0012 27.8359C27.5752 27.8359 27.1588 27.9623 26.8046 28.1989C26.4504 28.4356 26.1743 28.772 26.0113 29.1656C25.8482 29.5592 25.8056 29.9923 25.8887 30.4101C25.9718 30.8279 26.1769 31.2117 26.4782 31.5129C26.7794 31.8142 27.1632 32.0193 27.581 32.1024C27.9989 32.1855 28.4319 32.1429 28.8255 31.9799C29.2191 31.8168 29.5555 31.5408 29.7922 31.1865C30.0289 30.8323 30.1552 30.4159 30.1552 29.9899C30.1552 29.4186 29.9283 28.8708 29.5243 28.4668C29.1204 28.0629 28.5725 27.8359 28.0012 27.8359ZM34.6938 8.08121L30.6321 22.2972C30.4265 23.0043 29.9978 23.626 29.41 24.0696C28.8222 24.5132 28.1068 24.755 27.3704 24.7589H12.6313C11.8949 24.755 11.1795 24.5132 10.5917 24.0696C10.004 23.626 9.5753 23.0043 9.36965 22.2972L5.30793 8.11199V8.06583L3.80017 2.83483C3.78588 2.76837 3.74887 2.70898 3.69552 2.66686C3.64217 2.62474 3.5758 2.60253 3.50785 2.60405H0.923118C0.678292 2.60405 0.443493 2.50679 0.270375 2.33367C0.0972568 2.16056 0 1.92576 0 1.68093C0 1.4361 0.0972568 1.20131 0.270375 1.02819C0.443493 0.855069 0.678292 0.757813 0.923118 0.757812H3.50785C3.97723 0.759475 4.4334 0.913332 4.80791 1.19629C5.18241 1.47925 5.45504 1.87604 5.58486 2.32711L6.89261 6.91193H33.8015C33.9448 6.91193 34.0862 6.9453 34.2143 7.00939C34.3425 7.07348 34.454 7.16653 34.54 7.28118C34.6251 7.39388 34.6833 7.52461 34.71 7.66331C34.7366 7.80201 34.7311 7.94498 34.6938 8.08121ZM10.5918 22.9126L7.41571 8.75817L11.1543 21.7895C11.2448 22.112 11.4379 22.3961 11.7045 22.5988C11.971 22.8015 12.2965 22.9117 12.6313 22.9126H27.3704C27.7053 22.9117 28.0307 22.8015 28.2973 22.5988C28.5639 22.3961 27.28 23.2351 27.3704 22.9126L10.5918 22.9126Z" fill="url(#paint0_linear_175_1388)"/>
</g>
</g>
<defs>
<linearGradient id="paint0_linear_175_1388" x1="-6.13999" y1="0.757814" x2="38.9623" y2="9.01915" gradientUnits="userSpaceOnUse">
<stop offset="0.0389507" stop-color="#FFF0BF"/>
<stop offset="0.289254" stop-color="#EFC990"/>
<stop offset="0.512668" stop-color="#FDD292"/>
<stop offset="0.836534" stop-color="#F0C749" stop-opacity="0.42"/>
<stop offset="1" stop-color="#D4AF37"/>
</linearGradient>
</defs>
</svg>
