<svg width="40" height="40" viewBox="0 0 35 35" fill="none" xmlns="http://www.w3.org/2000/svg">
<g id="ph:heart-straight-thin">
<path id="Vector" d="M5.19922 6.78986L5.19954 6.78957C5.95379 6.11824 6.83583 5.60614 7.7928 5.28398C8.74948 4.9619 9.76134 4.83628 10.7677 4.91463C12.8094 5.04363 14.733 5.91673 16.1743 7.36865C16.1743 7.36868 16.1743 7.36871 16.1744 7.36875L17.4998 8.69415L19.1126 7.08135C19.1126 7.08135 19.1126 7.08134 19.1126 7.08133C19.8594 6.33408 20.7508 5.74693 21.7322 5.35574C22.7136 4.96454 23.7645 4.77752 24.8206 4.8061C25.8767 4.83468 26.9159 5.07826 27.8747 5.52196C28.8335 5.96566 29.6918 6.60016 30.3972 7.38672L30.3975 7.38704C31.0688 8.14129 31.5809 9.02333 31.9031 9.98029C32.2251 10.937 32.3507 11.9488 32.2724 12.9552C32.1434 14.9968 31.2704 16.9204 29.8185 18.3616L29.8186 18.3616L29.7361 18.2791L29.8183 18.3619L18.7444 29.4358L18.7437 29.4365C18.412 29.7625 17.9661 29.9462 17.501 29.9485C17.5008 29.9485 17.5005 29.9485 17.5003 29.9485L17.4998 29.8318C17.2837 29.8354 17.0691 29.7948 16.8693 29.7126C16.6694 29.6303 16.4885 29.508 16.3377 29.3533L5.19922 6.78986ZM5.19922 6.78986C4.41266 7.49522 3.77816 8.35351 3.33446 9.31233C2.89076 10.2711 2.64718 11.3103 2.6186 12.3665C2.59002 13.4226 2.77704 14.4734 3.16824 15.4548C3.55943 16.4362 4.14658 17.3276 4.89383 18.0744C4.89384 18.0745 4.89385 18.0745 4.89385 18.0745L16.2541 29.4347C16.2543 29.4349 16.2545 29.4351 16.2547 29.4353L5.19922 6.78986ZM10.2522 6.22775L10.2533 6.22776C12.1204 6.23443 13.9093 6.97897 15.2298 8.29907L17.0332 10.1025C17.0334 10.1027 17.0336 10.1029 17.0338 10.1031C17.0943 10.1653 17.1666 10.2147 17.2464 10.2485C17.3266 10.2825 17.4127 10.3 17.4998 10.3C17.5868 10.3 17.6729 10.2825 17.7531 10.2485C17.8329 10.2148 17.9051 10.1654 17.9655 10.1033C17.9658 10.103 17.9661 10.1027 17.9663 10.1025L20.0566 8.02589L20.0571 8.02543C20.6745 7.40512 21.412 6.91734 22.2245 6.59194C23.0369 6.26655 23.9073 6.11039 24.7822 6.13301C25.6571 6.15564 26.5182 6.35658 27.3128 6.72354C28.1073 7.09049 28.8186 7.61574 29.4032 8.26714L29.4032 8.26719C31.6546 10.7731 31.4326 14.8727 28.888 17.4173L17.8009 28.5043C17.8008 28.5045 17.8006 28.5046 17.8005 28.5047C17.7201 28.5833 17.6122 28.6273 17.4998 28.6273C17.3874 28.6273 17.2794 28.5833 17.199 28.5048C17.1989 28.5046 17.1988 28.5045 17.1986 28.5043L5.83817 17.1302L5.83793 17.13C5.21762 16.5125 4.72984 15.775 4.40444 14.9626C4.07905 14.1501 3.92289 13.2798 3.94551 12.4048C3.96814 11.5299 4.16908 10.6688 4.53604 9.87427C4.90296 9.07978 5.42815 8.36852 6.07946 7.78402C7.22754 6.76293 8.71582 6.20785 10.2522 6.22775Z" fill="#232221" stroke="#232221" stroke-width="0.233333"/>
</g>
</svg>
