<svg width="24" height="24" viewBox="0 0 24 24" fill="none" xmlns="http://www.w3.org/2000/svg">
<g id="fluent:search-48-regular">
<path id="Vector" d="M10 3C6.134 3 3 6.134 3 10C3 13.866 6.134 17 10 17C11.641 17.0026 13.2303 16.4261 14.488 15.372L19.933 20.817C19.991 20.875 20.06 20.9211 20.1358 20.9525C20.2116 20.9839 20.2929 21.0001 20.375 21.0001C20.4571 21.0001 20.5384 20.9839 20.6142 20.9525C20.69 20.9211 20.759 20.875 20.817 20.817C20.875 20.759 20.9211 20.69 20.9525 20.6142C20.9839 20.5384 21.0001 20.4571 21.0001 20.375C21.0001 20.2929 20.9839 20.2116 20.9525 20.1358C20.9211 20.06 20.875 19.991 20.817 19.933L15.372 14.488C16.4259 13.2302 17.0024 11.641 17 10C17 6.134 13.866 3 10 3ZM4.25 10C4.25 6.8245 6.8245 4.25 10 4.25C13.1755 4.25 15.75 6.8245 15.75 10C15.75 13.1755 13.1755 15.75 10 15.75C6.8245 15.75 4.25 13.1755 4.25 10Z" fill="#232221"/>
</g>
</svg>
