<?xml version="1.0" encoding="utf-8"?>
<svg viewBox="-23.306 629.701 571.557 586.235" xmlns="http://www.w3.org/2000/svg">
  <g transform="matrix(0.10000000149011612, 0, 0, -0.10000000149011612, -12.830266952514648, 1270.6689453125)" fill="#000000" stroke="none">
    <path d="M 2042.611 5364.73 C 2035.611 5148.73 2035.611 5146.73 2005.611 5084.73 C 1969.611 5012.73 1916.611 4967.73 1840.611 4946.73 C 1812.611 4938.73 1708.611 4929.73 1605.611 4925.73 C 1393.611 4916.73 1395.611 4915.73 1640.611 4902.73 C 1739.611 4896.73 1837.611 4886.73 1858.611 4880.73 C 1908.611 4863.73 1980.611 4799.73 2007.611 4748.73 C 2031.611 4700.73 2044.611 4572.73 2044.611 4366.73 C 2045.611 4162.73 2062.611 4232.73 2069.611 4469.73 C 2076.611 4715.73 2085.611 4751.73 2161.611 4821.73 C 2232.611 4886.73 2276.611 4897.73 2509.611 4905.73 C 2597.611 4909.73 2670.611 4913.73 2672.611 4915.73 C 2674.611 4917.73 2596.611 4921.73 2498.611 4925.73 C 2398.611 4929.73 2298.611 4938.73 2270.611 4946.73 C 2194.611 4967.73 2141.611 5012.73 2105.611 5084.73 C 2075.611 5146.73 2074.611 5147.73 2068.611 5364.73 C 2065.611 5483.73 2059.611 5581.73 2055.611 5581.73 C 2051.611 5581.73 2045.611 5483.73 2042.611 5364.73 Z"/>
    <path d="M3186 5338 c-3 -68 -15 -380 -26 -695 -22 -616 -26 -652 -85 -781 -105 -229 -336 -392 -590 -417 -56 -5 -500 -26 -903 -41 -95 -4 -170 -9 -168 -12 3 -2 236 -15 518 -28 582 -26 605 -28 696 -56 121 -36 199 -85 298 -183 76 -76 98 -105 138 -185 25 -52 53 -126 61 -165 10 -48 21 -250 35 -635 21 -592 32 -849 36 -815 2 11 8 166 14 345 28 872 37 1056 55 1125 24 88 87 211 144 281 94 116 263 219 406 248 44 9 255 22 565 36 272 11 518 24 545 28 33 5 -130 15 -475 30 -550 24 -615 30 -714 63 -190 63 -364 229 -441 417 -37 92 -53 213 -60 457 -3 121 -8 258 -10 305 -3 47 -10 245 -16 440 -6 195 -13 356 -14 358 -2 2 -6 -52 -9 -120z" style="fill-rule: evenodd;"/>
    <path d="M 993.786 4313.294 C 992.786 4294.294 987.786 4228.294 983.786 4167.294 C 977.786 4065.294 973.786 4052.294 948.786 4018.294 C 909.786 3967.294 873.786 3955.294 740.786 3946.294 L 627.786 3938.294 L 744.786 3931.294 C 865.786 3924.294 900.786 3913.294 939.786 3871.294 C 970.786 3839.294 982.786 3800.294 982.786 3739.294 C 982.786 3710.294 985.786 3650.294 990.786 3607.294 C 997.786 3529.294 997.786 3529.294 1002.786 3669.294 C 1007.786 3800.294 1009.786 3812.294 1034.786 3850.294 C 1071.786 3907.294 1112.786 3923.294 1244.786 3931.294 L 1357.786 3938.294 L 1243.786 3946.294 C 1112.786 3955.294 1066.786 3973.294 1029.786 4033.294 C 1010.786 4063.294 1006.786 4087.294 1001.786 4208.294 C 998.786 4285.294 994.786 4332.294 993.786 4313.294 Z"/>
    <path d="M 2331.78 2915.663 C 2326.78 2911.663 2323.78 2853.663 2322.78 2787.663 C 2322.78 2720.663 2318.78 2617.663 2314.78 2558.663 C 2306.78 2465.663 2301.78 2444.663 2276.78 2403.663 C 2242.78 2348.663 2177.78 2296.663 2125.78 2281.663 C 2105.78 2276.663 2016.78 2268.663 1928.78 2265.663 C 1840.78 2261.663 1759.78 2255.663 1749.78 2251.663 C 1738.78 2247.663 1810.78 2241.663 1909.78 2237.663 C 2124.78 2229.663 2167.78 2218.663 2233.78 2152.663 C 2303.78 2082.663 2312.78 2045.663 2320.78 1798.663 C 2323.78 1684.663 2329.78 1588.663 2333.78 1586.663 C 2337.78 1584.663 2343.78 1678.663 2346.78 1795.663 C 2354.78 2046.663 2363.78 2082.663 2433.78 2152.663 C 2499.78 2218.663 2541.78 2229.663 2758.78 2237.663 C 2941.78 2244.663 2972.78 2259.663 2808.78 2261.663 C 2759.78 2261.663 2676.78 2266.663 2625.78 2271.663 C 2519.78 2281.663 2465.78 2306.663 2414.78 2368.663 C 2363.78 2430.663 2354.78 2475.663 2346.78 2709.663 C 2341.78 2827.663 2335.78 2919.663 2331.78 2915.663 Z"/>
    <g fill="#000000" stroke="none" transform="matrix(1, 0, 0, 1, 24892.675781, -2933.290527)">
      <path d="M4597 5633 c-7 -216 -7 -218 -37 -280 -36 -72 -89 -117 -165 -138 -28 -8 -132 -17 -235 -21 -212 -9 -210 -10 35 -23 99 -6 197 -16 218 -22 50 -17 122 -81 149 -132 24 -48 37 -176 37 -382 1 -204 18 -134 25 103 7 246 16 282 92 352 71 65 115 76 348 84 88 4 161 8 163 10 2 2 -76 6 -174 10 -100 4 -200 13 -228 21 -76 21 -129 66 -165 138 -30 62 -31 63 -37 280 -3 119 -9 217 -13 217 -4 0 -10 -98 -13 -217z"/>
      <path d="M3186 5338 c-3 -68 -15 -380 -26 -695 -22 -616 -26 -652 -85 -781 -105 -229 -336 -392 -590 -417 -56 -5 -500 -26 -903 -41 -95 -4 -170 -9 -168 -12 3 -2 236 -15 518 -28 582 -26 605 -28 696 -56 121 -36 199 -85 298 -183 76 -76 98 -105 138 -185 25 -52 53 -126 61 -165 10 -48 21 -250 35 -635 21 -592 32 -849 36 -815 2 11 8 166 14 345 28 872 37 1056 55 1125 24 88 87 211 144 281 94 116 263 219 406 248 44 9 255 22 565 36 272 11 518 24 545 28 33 5 -130 15 -475 30 -550 24 -615 30 -714 63 -190 63 -364 229 -441 417 -37 92 -53 213 -60 457 -3 121 -8 258 -10 305 -3 47 -10 245 -16 440 -6 195 -13 356 -14 358 -2 2 -6 -52 -9 -120z" style="fill-rule: evenodd;"/>
      <path d="M5671 4150 c-1 -19 -6 -85 -10 -146 -6 -102 -10 -115 -35 -149 -39 -51 -75 -63 -208 -72 l-113 -8 117 -7 c121 -7 156 -18 195 -60 31 -32 43 -71 43 -132 0 -29 3 -89 8 -132 7 -78 7 -78 12 62 5 131 7 143 32 181 37 57 78 73 210 81 l113 7 -114 8 c-131 9 -177 27 -214 87 -19 30 -23 54 -28 175 -3 77 -7 124 -8 105z"/>
      <path d="M4198 2904 c-5 -4 -8 -62 -9 -128 0 -67 -4 -170 -8 -229 -8 -93 -13 -114 -38 -155 -34 -55 -99 -107 -151 -122 -20 -5 -109 -13 -197 -16 -88 -4 -169 -10 -179 -14 -11 -4 61 -10 160 -14 215 -8 258 -19 324 -85 70 -70 79 -107 87 -354 3 -114 9 -210 13 -212 4 -2 10 92 13 209 8 251 17 287 87 357 66 66 108 77 325 85 183 7 214 22 50 24 -49 0 -132 5 -183 10 -106 10 -160 35 -211 97 -51 62 -60 107 -68 341 -5 118 -11 210 -15 206z"/>
    </g>
  </g>
</svg>